<?xml version="1.0" encoding="UTF-8"?>
<svg version="1.1" xmlns="http://www.w3.org/2000/svg" width="512" height="512">
<path d="M0 0 C0.91309433 0.36558014 1.82618866 0.73116028 2.76695251 1.1078186 C4.74209279 1.90012003 6.71519501 2.69751744 8.68643188 3.4994812 C11.8576042 4.78960345 15.03380566 6.06654497 18.21166992 7.34008789 C21.55821879 8.68142923 24.9044075 10.02360397 28.24900818 11.36979675 C38.99588857 15.69479426 49.77642581 19.9315758 60.56533813 24.15042114 C64.82976097 25.8181597 69.092996 27.48892434 73.35630798 29.15950012 C76.57497041 30.42063897 79.79381214 31.68131921 83.01269531 32.94189453 C98.79857609 39.12442258 114.58104571 45.3156576 130.36326599 51.50752258 C136.87318602 54.06126848 143.38397534 56.61278654 149.89545155 59.16256142 C155.06026065 61.18509737 160.22448963 63.20911009 165.38834667 65.23407555 C168.49899039 66.45381163 171.60999356 67.67260989 174.7215271 68.89007568 C178.17446864 70.24123823 181.62640126 71.59494875 185.078125 72.94921875 C186.60281654 73.54478073 186.60281654 73.54478073 188.15830994 74.15237427 C192.60449955 75.89945639 197.03889517 77.67317448 201.43505859 79.54296875 C202.13327728 79.83880859 202.83149597 80.13464844 203.5508728 80.43945312 C205.58793909 81.5434521 206.92009001 82.68363755 208.4140625 84.44921875 C208.8828125 86.5703125 208.8828125 86.5703125 208.9140625 88.88671875 C208.96046875 90.02947266 208.96046875 90.02947266 209.0078125 91.1953125 C208.11327617 94.59101948 206.28642711 95.45527301 203.4140625 97.44921875 C200.49163495 98.89310515 197.48427915 100.08571489 194.45239258 101.27929688 C193.55080382 101.64217458 192.64921507 102.00505228 191.72030544 102.37892628 C188.71127569 103.58762153 185.69750384 104.78400023 182.68359375 105.98046875 C180.53605799 106.84025284 178.3888276 107.7008 176.24188232 108.5620575 C170.4454783 110.88486199 164.64492092 113.1971237 158.84355545 115.50750351 C152.8013526 117.91589525 146.76304494 120.33401211 140.72436523 122.7512207 C130.8215548 126.71382293 120.91654603 130.67087267 111.00976562 134.62353516 C97.33334227 140.08044758 83.66195112 145.54986723 69.9921875 151.0234375 C65.89090647 152.66545783 61.78958311 154.30737242 57.68823242 155.94921875 C56.70488513 156.34287313 55.72153784 156.73652752 54.70839214 157.14211082 C48.05665202 159.80470172 41.40418238 162.46546296 34.7512207 165.125 C33.86259622 165.48035639 32.97397173 165.83571278 32.05841923 166.20183754 C27.83660896 167.88980441 23.61395515 169.57558231 19.38911438 171.25595093 C12.8298247 173.86684525 6.2792455 176.48624833 -0.22314453 179.23681641 C-1.16207047 179.62952225 -2.1009964 180.02222809 -3.06837463 180.42683411 C-4.67760286 181.10335541 -6.28163625 181.79250204 -7.87779236 182.49931335 C-14.57206537 185.29940289 -19.69805186 184.00693096 -26.28890133 181.38152027 C-27.32550821 180.95483571 -27.32550821 180.95483571 -28.38305664 180.51953125 C-29.13420777 180.21770022 -29.88535891 179.9158692 -30.65927219 179.60489178 C-33.14960252 178.60205946 -35.63527424 177.58817518 -38.12109375 176.57421875 C-39.89412077 175.85769429 -41.66743262 175.14187431 -43.44100952 174.42671204 C-48.19678444 172.50684974 -52.94867362 170.57754008 -57.69990158 168.64645767 C-62.61477641 166.65079623 -67.53322637 164.66398852 -72.45141602 162.67651367 C-80.3771816 159.47259357 -88.30107188 156.26408179 -96.22363281 153.05224609 C-106.524377 148.87676427 -116.83083531 144.71559139 -127.140625 140.5625 C-127.87927984 140.26492672 -128.61793468 139.96735344 -129.37897301 139.66076279 C-132.23389686 138.51066539 -135.08884732 137.36063411 -137.94386578 136.21077156 C-144.99102876 133.37242608 -152.03664529 130.53025337 -159.08203125 127.6875 C-160.16205414 127.25174149 -161.24207703 126.81598297 -162.35482788 126.36701965 C-164.76521754 125.39446837 -167.17558939 124.42187301 -169.5859375 123.44921875 C-169.54984375 124.70460449 -169.51375 125.95999023 -169.4765625 127.25341797 C-169.48250138 135.73246249 -170.49930442 144.15360208 -171.3359375 152.58203125 C-171.51571847 154.42857864 -171.69507363 156.27516753 -171.87402344 158.12179565 C-172.34325491 162.95212248 -172.81822229 167.78186822 -173.29443359 172.61151123 C-173.78052009 177.55186399 -174.26111458 182.49275072 -174.7421875 187.43359375 C-175.68476501 197.10599569 -176.63341007 206.77779196 -177.5859375 216.44921875 C-176.79662842 216.74723389 -176.00731934 217.04524902 -175.1940918 217.35229492 C-170.48290641 219.33370052 -167.65191695 223.46954262 -165.2734375 227.88671875 C-163.04391678 236.19675051 -163.21569678 243.04734314 -167.3359375 250.69921875 C-170.2641758 254.27817667 -173.40024125 257.35637062 -177.5859375 259.44921875 C-175.86252898 265.1982009 -173.68096257 270.62338403 -171.1953125 276.08203125 C-170.88509155 276.76747009 -170.57487061 277.45290894 -170.25524902 278.15911865 C-168.95601795 281.02541999 -167.65407771 283.89004791 -166.32714844 286.74365234 C-165.35074864 288.84964077 -164.39655437 290.9645838 -163.4453125 293.08203125 C-163.14332947 293.7176297 -162.84134644 294.35322815 -162.5302124 295.00808716 C-160.52657331 299.53144516 -160.36539901 302.67157796 -161.5859375 307.44921875 C-164.17397731 310.33303454 -165.78123299 311.29833665 -169.5859375 312.01171875 C-173.72557073 311.23553752 -174.86463796 309.66043454 -177.5859375 306.44921875 C-179.24113719 303.43200812 -180.5776338 300.31216143 -181.8984375 297.13671875 C-182.25744141 296.30076172 -182.61644531 295.46480469 -182.98632812 294.60351562 C-183.86366689 292.55639183 -184.72975866 290.50526059 -185.5859375 288.44921875 C-186.0190625 289.39796875 -186.4521875 290.34671875 -186.8984375 291.32421875 C-188.5859375 294.44921875 -188.5859375 294.44921875 -191.5859375 296.44921875 C-195.81601232 296.99756178 -197.90853368 296.85848356 -201.5859375 294.63671875 C-205.31870828 288.68761531 -202.81733935 281.15301306 -201.39453125 274.5625 C-200.94490912 272.62716998 -200.4878578 270.69355108 -200.0234375 268.76171875 C-199.78947266 267.76205078 -199.55550781 266.76238281 -199.31445312 265.73242188 C-198.74488617 263.30304447 -198.16866098 260.87546742 -197.5859375 258.44921875 C-198.34519531 258.19785156 -199.10445312 257.94648438 -199.88671875 257.6875 C-202.82954285 256.33746348 -203.91667971 255.24016198 -205.7734375 252.63671875 C-206.50626953 251.63705078 -206.50626953 251.63705078 -207.25390625 250.6171875 C-211.23346501 244.14019303 -211.57004223 237.59340259 -210.15625 230.203125 C-208.43613583 224.7560968 -205.01378565 220.97245276 -200.5859375 217.44921875 C-199.51666016 216.91941406 -199.51666016 216.91941406 -198.42578125 216.37890625 C-196.40696058 215.58843559 -196.40696058 215.58843559 -195.5859375 213.44921875 C-195.38311972 212.11217309 -195.22831904 210.76765485 -195.09950256 209.42146301 C-195.01687668 208.57900024 -194.93425079 207.73653748 -194.84912109 206.86854553 C-194.71896606 205.47919044 -194.71896606 205.47919044 -194.58618164 204.06176758 C-194.49171249 203.08760895 -194.39724335 202.11345032 -194.2999115 201.10977173 C-194.0946842 198.98898896 -193.89125174 196.86803194 -193.68937874 194.74692726 C-193.36936879 191.38814503 -193.04402839 188.0299188 -192.71714783 184.67179871 C-191.78850967 175.12170126 -190.86951049 165.57068435 -189.9543457 156.01928711 C-189.39457071 150.1809397 -188.82845616 144.3432341 -188.25857353 138.5058651 C-188.04279612 136.28181508 -187.82951468 134.05752142 -187.61879158 131.83298683 C-187.32346644 128.71593517 -187.020135 125.59975568 -186.71508789 122.48364258 C-186.6303421 121.56752701 -186.54559631 120.65141144 -186.45828247 119.70753479 C-185.1957764 107.05137453 -185.1957764 107.05137453 -181.74436951 103.61643982 C-179.53241892 102.42027736 -177.44445388 101.54519068 -175.05102539 100.77368164 C-174.1446785 100.47730301 -173.2383316 100.18092438 -172.30451965 99.87556458 C-170.82153633 99.40348824 -170.82153633 99.40348824 -169.30859375 98.921875 C-168.25971481 98.58109421 -167.21083588 98.24031342 -166.13017273 97.88920593 C-162.6384812 96.75638953 -159.14346195 95.63420577 -155.6484375 94.51171875 C-153.18429857 93.71405513 -150.72043619 92.91553672 -148.25683594 92.11621094 C-144.37803569 90.85790547 -140.49902328 89.60027641 -136.61886597 88.34616089 C-127.36479589 85.35478898 -118.1190638 82.33875103 -108.87890625 79.3046875 C-108.23432402 79.09307983 -107.58974178 78.88147217 -106.92562675 78.66345215 C-101.75170499 76.96479352 -96.578187 75.26490672 -91.40484238 73.56449127 C-77.70963915 69.06311047 -64.01160041 64.57296456 -50.28125 60.1796875 C-48.24897673 59.52716367 -46.21674868 58.87449901 -44.18457031 58.22167969 C-40.4708599 57.02873979 -36.75373503 55.84742105 -33.03417969 54.67285156 C-31.40284376 54.14955915 -29.77164926 53.62582554 -28.140625 53.1015625 C-27.40941437 52.87438034 -26.67820374 52.64719818 -25.92483521 52.41313171 C-21.09820183 50.89172673 -21.09820183 50.89172673 -17.5859375 47.44921875 C-17.19617315 44.33110392 -17.08171505 42.33902308 -18.6484375 39.57421875 C-22.07199688 37.58634556 -25.84947498 38.0507412 -29.63381577 38.91915894 C-31.94507919 39.60525552 -34.22506518 40.35562944 -36.50732422 41.1328125 C-37.37661245 41.41951215 -38.24590069 41.7062118 -39.14153099 42.00159931 C-42.01958743 42.95350139 -44.89248904 43.92007687 -47.765625 44.88671875 C-49.79849598 45.56215234 -51.83168539 46.23662818 -53.86517334 46.91020203 C-59.28423444 48.70787418 -64.69910084 50.5178791 -70.11328888 52.33016586 C-75.68023392 54.19108576 -81.25107393 56.04026015 -86.82177734 57.88989258 C-93.40814683 60.07741651 -99.99425914 62.26569059 -106.5786438 64.45918274 C-122.43773092 69.742272 -138.3132333 74.97091521 -154.2109375 80.13671875 C-156.06236359 80.73885126 -157.91376452 81.34106116 -159.76513672 81.94335938 C-160.61935211 82.22092072 -161.4735675 82.49848206 -162.35366821 82.78445435 C-163.94344728 83.30266024 -165.53235958 83.82353619 -167.12020874 84.34762573 C-170.72887034 85.53705169 -174.34040626 86.67918795 -177.99121094 87.73291016 C-178.68765717 87.94220657 -179.38410339 88.15150299 -180.10165405 88.36714172 C-181.96077707 88.92422302 -183.82659377 89.4588324 -185.69287109 89.99145508 C-189.41132922 91.86511866 -190.14873 93.60683887 -191.5859375 97.44921875 C-192.23434533 100.0908803 -192.80014422 102.65515504 -193.2734375 105.32421875 C-193.40298828 106.01257813 -193.53253906 106.7009375 -193.66601562 107.41015625 C-193.98067871 109.08835937 -194.28445215 110.76859828 -194.5859375 112.44921875 C-199.37043535 111.73184051 -203.60730593 109.98024294 -208.0625 108.17578125 C-209.27309586 107.68916519 -209.27309586 107.68916519 -210.50814819 107.19271851 C-212.20850264 106.50738992 -213.90791836 105.81972823 -215.60644531 105.12988281 C-218.20550933 104.07641892 -220.80952641 103.0359425 -223.4140625 101.99609375 C-225.06802625 101.32760898 -226.72168294 100.65836384 -228.375 99.98828125 C-229.15316071 99.67879547 -229.93132141 99.36930969 -230.73306274 99.05044556 C-231.45746552 98.75358856 -232.18186829 98.45673157 -232.92822266 98.15087891 C-233.56378082 97.89408356 -234.19933899 97.63728821 -234.85415649 97.37271118 C-236.84183016 96.312761 -238.12886624 95.16182283 -239.5859375 93.44921875 C-240.01953125 91.328125 -240.01953125 91.328125 -240.0234375 89.01171875 C-240.04277344 88.24988281 -240.06210938 87.48804688 -240.08203125 86.703125 C-239.38541203 83.53816998 -238.05864412 82.53968687 -235.5859375 80.44921875 C-233.16915923 79.31962193 -230.84799261 78.35253712 -228.3515625 77.4453125 C-227.62336304 77.17020844 -226.89516357 76.89510437 -226.14489746 76.61166382 C-224.55401566 76.01170205 -222.96131744 75.41654006 -221.36706543 74.82559204 C-216.94175527 73.18410823 -212.53066937 71.50499763 -208.1171875 69.83203125 C-206.71191803 69.30102562 -206.71191803 69.30102562 -205.27825928 68.7592926 C-194.58444017 64.71043903 -183.96092559 60.48712695 -173.3359375 56.26171875 C-169.24775937 54.63840615 -165.15910814 53.01628778 -161.0703125 51.39453125 C-160.04351379 50.9871875 -159.01671509 50.57984375 -157.95880127 50.16015625 C-146.51293557 45.62237068 -135.05028958 41.1275516 -123.5859375 36.63671875 C-122.54719482 36.22977783 -121.50845215 35.82283691 -120.43823242 35.40356445 C-111.72935462 31.9917628 -111.72935462 31.9917628 -107.65014648 30.39385986 C-99.34049175 27.13823001 -91.03303139 23.87702911 -82.7265625 20.61328125 C-82.10335617 20.36841539 -81.48014984 20.12354954 -80.83805847 19.8712635 C-75.33705897 17.70978373 -69.83620482 15.54793416 -64.33544922 13.38583374 C-63.21025879 12.94357452 -62.08506836 12.50131531 -60.92578125 12.0456543 C-59.82045044 11.61088272 -58.71511963 11.17611115 -57.57629395 10.72816467 C-55.40567752 9.87591621 -53.23406318 9.02620448 -51.06140137 8.17918396 C-45.73387035 6.09941588 -40.4303101 3.97850654 -35.15429688 1.77099609 C-34.11956238 1.34562057 -33.08482788 0.92024506 -32.01873779 0.48197937 C-30.07839561 -0.31698448 -28.14420613 -1.13114224 -26.21807861 -1.96379089 C-16.43320554 -5.9536224 -9.4722544 -3.90503824 0 0 Z " fill="#288EFF" transform="translate(271.5859375,102.55078125)"/>
<path d="M0 0 C0.09262748 11.66539149 0.16372827 23.33069568 0.20724869 34.99637985 C0.22813499 40.41308316 0.25647193 45.82953511 0.30175781 51.24609375 C0.34517797 56.47212448 0.36912925 61.69791324 0.37950897 66.92411041 C0.3869072 68.91926127 0.40135404 70.9143987 0.42292023 72.90944672 C0.4519032 75.70131686 0.45595813 78.49218363 0.45410156 81.28417969 C0.46848267 82.11136505 0.48286377 82.93855042 0.49768066 83.790802 C0.47137244 87.44027282 0.35271034 89.54002318 -1.90338135 92.48223877 C-4.84479544 94.61155507 -6.78205888 95.1735649 -10.34765625 95.54296875 C-57.86476293 100.85045986 -99.89233149 118.55345382 -136.625 149.0546875 C-137.40875 149.69664062 -138.1925 150.33859375 -139 151 C-139.68578125 151.5671875 -140.3715625 152.134375 -141.078125 152.71875 C-143.60315662 154.40210441 -145.87035138 154.66380803 -148.875 154.53125 C-153.18106857 153.45473286 -155.91539934 150.02486368 -159 147 C-190.09618865 118.41315568 -234.78499409 103.97690063 -275.171875 94.79296875 C-275.91856445 94.6213623 -276.66525391 94.44975586 -277.43457031 94.27294922 C-279.31609308 93.85349864 -281.20466851 93.4660076 -283.09375 93.08203125 C-286.82987373 91.69102819 -287.89243398 90.3794926 -290 87 C-290.36720312 84.04861832 -290.50794947 81.48160289 -290.45410156 78.5378418 C-290.45468567 77.6983046 -290.45526978 76.8587674 -290.45587158 75.99378967 C-290.45309263 73.22850697 -290.42201006 70.46431232 -290.390625 67.69921875 C-290.38316193 65.77822966 -290.37746931 63.85723295 -290.37347412 61.93623352 C-290.35822302 56.88738884 -290.31894559 51.83900658 -290.2746582 46.79034424 C-290.23369428 41.63568375 -290.2154607 36.48094832 -290.1953125 31.32617188 C-290.15245094 21.21724507 -290.08420582 11.10866104 -290 1 C-280.42997749 4.55845754 -270.89586002 8.1836391 -261.421875 11.9921875 C-260.27453888 12.45182388 -259.12720276 12.91146027 -257.94509888 13.38502502 C-255.48717607 14.36988788 -253.02951123 15.35536961 -250.57220459 16.34176636 C-246.67468865 17.90588488 -242.77516144 19.4649511 -238.87548828 21.02368164 C-226.32694566 26.04152969 -213.78659571 31.07822936 -201.26855469 36.17175293 C-196.45750896 38.12913075 -191.64304968 40.07804794 -186.82776642 42.02497482 C-182.90023101 43.61388697 -178.97758748 45.21417114 -175.05817604 46.82301044 C-172.04039018 48.05777713 -169.01573585 49.2755202 -165.9921875 50.49609375 C-164.9217923 50.9397377 -163.85139709 51.38338165 -162.74856567 51.84046936 C-148.88474127 57.3890848 -140.49096779 55.39489539 -127 50 C-125.46578975 49.40051766 -123.93124182 48.80189881 -122.3963623 48.20413208 C-117.45320393 46.26593534 -112.53112792 44.27694231 -107.609375 42.28515625 C-105.77187264 41.54465025 -103.93424336 40.80445914 -102.09649658 40.06455994 C-97.28284647 38.12550611 -92.47098134 36.18206136 -87.65948486 34.2376709 C-83.83525883 32.69302662 -80.00985327 31.15131775 -76.18434906 29.6098423 C-71.4715119 27.71080447 -66.75917254 25.81053261 -62.046875 23.91015625 C-61.12337753 23.53778461 -60.19988007 23.16541298 -59.24839783 22.78175735 C-49.17639449 18.71953122 -39.11124008 14.64154616 -29.06054688 10.52685547 C-26.48933561 9.47636373 -23.91798447 8.42621507 -21.34659576 7.37615776 C-18.94354482 6.39275028 -16.54289319 5.4036449 -14.14227295 4.4143219 C-12.69945448 3.82468315 -11.2565288 3.23530663 -9.81347656 2.64624023 C-9.16184288 2.37553396 -8.5102092 2.10482769 -7.83882904 1.8259182 C-5.04384772 0.69120987 -3.05151136 0 0 0 Z " fill="#2A8BFF" transform="translate(403,245)"/>
</svg>
